<svg xmlns="http://www.w3.org/2000/svg" viewBox="129 230 1291 506" role="img" aria-labelledby="title desc">
<title id="title">Ani Market</title>
<desc id="desc">Ani Market logo with sprouting plant and wordmark</desc>
<path fill="#4CAF45" fill-rule="evenodd" d="M 1190,581 L 1178,589 L 1170,597 L 1164,605 L 1156,623 L 1154,633 L 1154,640 L 1153,641 L 1153,651 L 1154,652 L 1153,655 L 1156,669 L 1163,685 L 1168,692 L 1181,704 L 1195,711 L 1210,715 L 1239,716 L 1254,713 L 1270,706 L 1277,701 L 1285,693 L 1290,685 L 1262,670 L 1260,670 L 1255,676 L 1249,680 L 1242,683 L 1229,684 L 1228,685 L 1214,683 L 1206,679 L 1199,673 L 1195,667 L 1192,657 L 1193,656 L 1294,656 L 1293,629 L 1289,615 L 1283,603 L 1276,594 L 1267,586 L 1257,580 L 1246,576 L 1236,574 L 1214,574 L 1213,575 L 1203,576 Z M 1193,629 L 1196,620 L 1204,610 L 1210,606 L 1222,603 L 1233,604 L 1239,606 L 1245,610 L 1251,617 L 1255,627 L 1254,632 L 1194,632 Z M 998,575 L 983,574 L 970,578 L 960,584 L 951,594 L 950,593 L 950,577 L 949,576 L 948,577 L 943,576 L 912,576 L 912,713 L 951,713 L 952,712 L 952,634 L 954,627 L 961,618 L 971,612 L 980,610 L 998,610 Z M 773,588 L 765,597 L 761,607 L 760,614 L 792,619 L 793,616 L 798,610 L 810,604 L 827,604 L 837,608 L 842,613 L 845,621 L 845,629 L 844,630 L 814,630 L 813,631 L 810,630 L 809,631 L 797,632 L 780,637 L 765,646 L 757,656 L 753,668 L 753,682 L 756,692 L 761,700 L 774,710 L 785,714 L 795,716 L 814,716 L 824,714 L 835,709 L 845,701 L 847,704 L 847,713 L 884,713 L 884,620 L 881,607 L 872,592 L 863,584 L 853,579 L 833,574 L 809,574 L 808,575 L 798,576 L 782,582 Z M 845,701 L 846,700 L 847,701 L 846,702 Z M 845,655 L 845,669 L 840,679 L 832,685 L 822,688 L 808,688 L 799,685 L 793,679 L 792,676 L 793,666 L 798,660 L 803,657 L 817,654 L 844,654 Z M 1325,540 L 1325,576 L 1324,577 L 1305,577 L 1304,576 L 1303,577 L 1303,608 L 1319,608 L 1325,610 L 1325,678 L 1328,690 L 1332,698 L 1341,707 L 1352,713 L 1364,716 L 1383,716 L 1400,712 L 1400,680 L 1386,683 L 1380,683 L 1373,681 L 1367,676 L 1364,664 L 1364,658 L 1365,657 L 1365,610 L 1367,608 L 1400,608 L 1400,577 L 1366,577 L 1365,576 L 1365,541 L 1364,540 Z M 529,525 L 529,713 L 569,713 L 569,594 L 570,593 L 622,677 L 640,677 L 692,594 L 693,595 L 693,713 L 733,713 L 733,528 L 734,525 L 710,525 L 709,524 L 697,525 L 696,524 L 691,524 L 680,540 L 632,620 L 604,576 L 574,525 L 531,525 L 530,524 Z M 1020,523 L 1020,711 L 1019,712 L 1020,713 L 1059,713 L 1060,712 L 1060,674 L 1073,662 L 1110,713 L 1157,713 L 1151,703 L 1144,695 L 1137,684 L 1101,636 L 1104,631 L 1153,577 L 1152,576 L 1150,577 L 1144,577 L 1143,576 L 1109,577 L 1107,576 L 1061,626 L 1060,625 L 1060,524 L 1059,523 Z M 1059,626 L 1060,625 L 1061,626 L 1060,627 Z M 909,314 L 908,315 L 908,459 L 948,459 L 948,315 L 910,315 Z M 862,325 L 855,320 L 841,314 L 831,313 L 830,312 L 817,312 L 816,313 L 814,312 L 805,314 L 795,318 L 787,323 L 779,331 L 778,330 L 777,315 L 740,315 L 739,314 L 738,315 L 738,458 L 739,459 L 778,459 L 778,376 L 780,367 L 784,359 L 790,353 L 797,349 L 807,347 L 819,348 L 829,353 L 835,360 L 838,368 L 838,374 L 839,375 L 839,459 L 879,459 L 879,360 L 875,344 L 870,334 Z M 427,267 L 409,267 L 408,268 L 406,267 L 405,268 L 398,268 L 379,272 L 357,280 L 334,294 L 316,311 L 302,331 L 294,347 L 287,368 L 284,384 L 282,386 L 276,370 L 261,344 L 237,320 L 215,307 L 196,300 L 183,297 L 170,296 L 169,295 L 150,295 L 149,296 L 151,315 L 160,342 L 173,363 L 183,374 L 204,390 L 220,398 L 239,404 L 256,406 L 257,407 L 269,407 L 270,408 L 270,439 L 266,449 L 156,557 L 150,571 L 150,690 L 155,701 L 163,708 L 173,712 L 403,712 L 416,706 L 422,699 L 426,689 L 426,573 L 424,566 L 418,555 L 309,449 L 305,439 L 305,407 L 308,405 L 311,405 L 329,399 L 355,387 L 372,376 L 395,355 L 406,340 L 418,317 L 426,289 L 427,273 L 428,272 Z M 194,579 L 287,488 L 380,577 L 383,584 L 383,668 L 381,670 L 195,670 L 192,667 L 192,659 L 193,658 L 193,648 L 192,647 L 192,640 L 193,639 L 193,633 L 192,632 L 192,600 L 193,599 L 193,582 Z M 601,260 L 563,354 L 562,359 L 551,384 L 546,399 L 533,429 L 526,449 L 523,454 L 522,459 L 565,459 L 582,416 L 583,417 L 590,417 L 591,416 L 663,416 L 666,421 L 680,459 L 725,459 L 721,447 L 717,440 L 709,420 L 706,410 L 702,403 L 690,370 L 677,340 L 676,335 L 673,330 L 663,303 L 647,266 L 646,261 L 645,260 Z M 623,309 L 651,381 L 650,382 L 596,382 L 595,381 Z M 917,252 L 908,259 L 904,266 L 903,275 L 904,280 L 908,288 L 914,293 L 921,296 L 934,296 L 941,293 L 949,285 L 952,276 L 952,271 L 948,260 L 942,254 L 935,251 L 924,250 Z"/>
</svg>